<?xml version="1.0" encoding="UTF-8" standalone="no"?>
<!-- Created with Inkscape (http://www.inkscape.org/) -->

<svg
   xmlns:dc="http://purl.org/dc/elements/1.1/"
   xmlns:cc="http://creativecommons.org/ns#"
   xmlns:rdf="http://www.w3.org/1999/02/22-rdf-syntax-ns#"
   xmlns:svg="http://www.w3.org/2000/svg"
   xmlns="http://www.w3.org/2000/svg"
   xmlns:xlink="http://www.w3.org/1999/xlink"
   xmlns:sodipodi="http://sodipodi.sourceforge.net/DTD/sodipodi-0.dtd"
   xmlns:inkscape="http://www.inkscape.org/namespaces/inkscape"
   id="svg2"
   version="1.1"
   inkscape:version="0.91 r13725"
   width="2481"
   height="3503"
   sodipodi:docname="Pepper-and-Carrot_by-David-Revoy_E22P01.svg">
  <metadata
     id="metadata8">
    <rdf:RDF>
      <cc:Work
         rdf:about="">
        <dc:format>image/svg+xml</dc:format>
        <dc:type
           rdf:resource="http://purl.org/dc/dcmitype/StillImage" />
        <dc:title />
      </cc:Work>
    </rdf:RDF>
  </metadata>
  <defs
     id="defs6">
    <filter
       inkscape:collect="always"
       style="color-interpolation-filters:sRGB"
       id="filter4213"
       x="-0.0010298714"
       width="1.0020597"
       y="-0.0014578935"
       height="1.0029159">
      <feGaussianBlur
         inkscape:collect="always"
         stdDeviation="0.24308766"
         id="feGaussianBlur4215" />
    </filter>
    <filter
       style="color-interpolation-filters:sRGB"
       inkscape:label="Drop Shadow"
       id="filter4348">
      <feFlood
         flood-opacity="0.498039"
         flood-color="rgb(70,103,83)"
         result="flood"
         id="feFlood4350" />
      <feComposite
         in="flood"
         in2="SourceGraphic"
         operator="in"
         result="composite1"
         id="feComposite4352" />
      <feGaussianBlur
         in="composite1"
         stdDeviation="3"
         result="blur"
         id="feGaussianBlur4354" />
      <feOffset
         dx="6"
         dy="6"
         result="offset"
         id="feOffset4356" />
      <feComposite
         in="SourceGraphic"
         in2="offset"
         operator="over"
         result="composite2"
         id="feComposite4358" />
    </filter>
    <linearGradient
       inkscape:collect="always"
       xlink:href="#linearGradient4146"
       id="linearGradient4152"
       x1="123.28429"
       y1="172.30492"
       x2="711.76129"
       y2="172.30492"
       gradientUnits="userSpaceOnUse"
       gradientTransform="matrix(1.0063508,0,0,0.99843848,-5.4110558,3.5380749)" />
    <linearGradient
       inkscape:collect="always"
       id="linearGradient4146">
      <stop
         style="stop-color:#b8a564;stop-opacity:1"
         offset="0"
         id="stop4148" />
      <stop
         id="stop4154"
         offset="0.5"
         style="stop-color:#e1cd9b;stop-opacity:1" />
      <stop
         style="stop-color:#b89a61;stop-opacity:1"
         offset="1"
         id="stop4150" />
    </linearGradient>
    <filter
       style="color-interpolation-filters:sRGB"
       inkscape:label="Drop Shadow"
       id="filter4105">
      <feFlood
         flood-opacity="0.498039"
         flood-color="rgb(70,103,83)"
         result="flood"
         id="feFlood4107" />
      <feComposite
         in="flood"
         in2="SourceGraphic"
         operator="in"
         result="composite1"
         id="feComposite4109" />
      <feGaussianBlur
         in="composite1"
         stdDeviation="3"
         result="blur"
         id="feGaussianBlur4111" />
      <feOffset
         dx="6"
         dy="6"
         result="offset"
         id="feOffset4113" />
      <feComposite
         in="SourceGraphic"
         in2="offset"
         operator="over"
         result="composite2"
         id="feComposite4115" />
    </filter>
  </defs>
  <sodipodi:namedview
     pagecolor="#ffffff"
     bordercolor="#666666"
     borderopacity="1"
     objecttolerance="10"
     gridtolerance="10"
     guidetolerance="10"
     inkscape:pageopacity="0"
     inkscape:pageshadow="2"
     inkscape:window-width="1366"
     inkscape:window-height="745"
     id="namedview4"
     showgrid="false"
     inkscape:zoom="0.3478261"
     inkscape:cx="698.18883"
     inkscape:cy="2747.3015"
     inkscape:window-x="-8"
     inkscape:window-y="-8"
     inkscape:window-maximized="1"
     inkscape:current-layer="layer1" />
  <g
     inkscape:groupmode="layer"
     id="layer2"
     inkscape:label="artwork"
     sodipodi:insensitive="true">
    <image
       sodipodi:absref="C:\Users\Nicolas\Documents\GitHub\peppercarrot_ep22_translation\fr\..\gfx_Pepper-and-Carrot_by-David-Revoy_E22P01.png"
       xlink:href="..\gfx_Pepper-and-Carrot_by-David-Revoy_E22P01.png"
       width="2481"
       height="3503"
       id="image10"
       x="0"
       y="0" />
  </g>
  <g
     inkscape:groupmode="layer"
     id="layer3"
     inkscape:label="speechbubbles" />
  <g
     inkscape:groupmode="layer"
     id="layer1"
     inkscape:label="txt">
    <rect
       style="color:#000000;clip-rule:nonzero;display:inline;overflow:visible;visibility:visible;opacity:1;isolation:auto;mix-blend-mode:normal;color-interpolation:sRGB;color-interpolation-filters:linearRGB;solid-color:#000000;solid-opacity:1;fill:#fff6d5;fill-opacity:1;fill-rule:nonzero;stroke:none;stroke-width:2.5999999;stroke-linecap:butt;stroke-linejoin:miter;stroke-miterlimit:4;stroke-dasharray:none;stroke-dashoffset:0;stroke-opacity:1;marker:none;color-rendering:auto;image-rendering:auto;shape-rendering:auto;text-rendering:auto;enable-background:accumulate"
       id="rect4632-8-6-1"
       width="630.35095"
       height="212.1181"
       x="127.90926"
       y="1895.7644"
       ry="59.471672"
       rx="60.32077" />
    <path
       style="color:#000000;display:inline;overflow:visible;visibility:visible;fill:#fff6d5;fill-opacity:1;fill-rule:nonzero;stroke:none;stroke-width:1px;marker:none;enable-background:accumulate"
       d="m 985.30237,2166.5496 c -43.75492,-28.8985 -127.0785,-77.6939 -148.52766,-99.8348 l -16.03099,23.1788 c -12.344,-2.1638 -55.60386,-37.417 -64.07739,-45.7818 l -19.47291,21.1121 c -25.6449,-16.206 -59.74776,-48.359 -79.2064,-69.508 l -3.47909,48.0303 c 24.05118,19.6761 61.69509,39.9096 88.12801,48.3334 l 21.40053,-21.1874 c 8.93846,10.2905 59.26741,37.4456 66.62385,44.0384 l 13.18501,-23.9626 z"
       id="path4032"
       inkscape:connector-curvature="0"
       sodipodi:nodetypes="cccccccccccc" />
    <text
       xml:space="preserve"
       style="font-style:normal;font-variant:normal;font-weight:normal;font-stretch:normal;font-size:45px;line-height:125%;font-family:Lavi;-inkscape-font-specification:'Lavi, Normal';text-align:center;letter-spacing:0px;word-spacing:0px;writing-mode:lr-tb;text-anchor:middle;display:inline;fill:#000000;fill-opacity:1;stroke:none"
       x="431.3956"
       y="1954.3196"
       id="text4246-2-3-1"
       sodipodi:linespacing="125%"><tspan
         sodipodi:role="line"
         id="tspan3346"
         x="431.3956"
         y="1954.3196">Nous y sommes !</tspan><tspan
         sodipodi:role="line"
         id="tspan3348"
         x="439.30576"
         y="2010.5696">Le grand concours de magie </tspan><tspan
         sodipodi:role="line"
         id="tspan3350"
         x="431.3956"
         y="2066.8196">peut enfin commencer !</tspan></text>
    <text
       sodipodi:linespacing="0%"
       xml:space="preserve"
       style="font-style:normal;font-variant:normal;font-weight:normal;font-stretch:normal;line-height:0%;font-family:Lavi;-inkscape-font-specification:Lavi;text-align:center;letter-spacing:0px;word-spacing:0px;text-anchor:middle;display:inline;opacity:0.6;fill:#000000;fill-opacity:1;stroke:none;filter:url(#filter4213)"
       x="-447.29675"
       y="2872.5061"
       id="text4246"
       transform="matrix(0.49197812,-0.17439938,-0.0864419,0.68586428,2214.6757,846.8289)"><tspan
         sodipodi:role="line"
         style="font-style:normal;font-variant:normal;font-weight:normal;font-stretch:normal;font-size:68.81560516px;line-height:1.26999998;font-family:Fondamento;-inkscape-font-specification:Fondamento;stroke:#000000;stroke-width:1.67631352;stroke-opacity:1"
         x="-447.29675"
         y="2872.5061"
         id="tspan4172">Concours de Magie</tspan></text>
    <g
       id="g4376"
       transform="matrix(1.6423756,0,0,0.99260507,-29.478016,21.743208)">
      <path
         inkscape:connector-curvature="0"
         id="path4362"
         d="m 680.77293,180.04356 c 17.16234,-3.26902 44.13173,8.17254 48.21801,7.35529 4.08627,-0.81726 31.05566,-3.26902 36.77644,-7.35529 5.72079,-4.08627 22.06587,7.35529 26.9694,4.08627 4.90353,-3.26902 -5.72078,13.89333 -22.88312,15.52783 -17.16235,1.63451 -35.9592,4.08628 -41.67998,8.9898 -5.72078,4.90353 -4.08627,14.71058 -4.08627,14.71058 l 6.53803,3.26902 -10.6243,6.53803 c 0,0 1.63451,8.9898 6.53803,8.17255 4.90353,-0.81726 41.67998,6.53803 44.949,8.17254 3.26901,1.63451 25.33488,17.16235 30.23841,16.34509 4.90353,-0.81725 18.79685,-3.26902 18.79685,-3.26902 0,0 -13.07607,6.53804 -18.79685,8.17255 -5.72078,1.63451 -46.5835,1.63451 -51.48703,1.63451 -4.90353,0 -26.15214,0 -32.69018,0 -6.53803,0 -17.97959,-8.9898 -24.51763,-6.53804 -6.53803,2.45176 -26.15214,2.45176 -26.15214,2.45176 z"
         style="fill:#d6c38d;fill-opacity:1;fill-rule:evenodd;stroke:none;stroke-width:1px;stroke-linecap:butt;stroke-linejoin:miter;stroke-opacity:1;filter:url(#filter4348)" />
      <path
         sodipodi:nodetypes="cccccccssscc"
         inkscape:connector-curvature="0"
         id="path4360"
         d="m 710.65601,141.59707 -28.42624,15.63443 -4.26394,24.87296 2.13197,10.65984 2.84263,6.3959 -13.46694,4.40607 -1.91877,16.70042 c 0,0 0.46193,11.58369 -0.95938,15.84763 -1.42131,4.26393 2.13197,12.79181 1.42131,17.7664 -0.71066,4.97459 -2.13197,12.79181 0,15.63443 2.13197,2.84262 21.72842,-41.40291 30.2563,-48.50947 4.97459,-7.81722 12.38306,-79.40861 12.38306,-79.40861 z"
         style="fill:#6e674b;fill-opacity:1;fill-rule:evenodd;stroke:none;stroke-width:1px;stroke-linecap:butt;stroke-linejoin:miter;stroke-opacity:1" />
      <path
         inkscape:connector-curvature="0"
         id="path3336"
         d="m 118.65619,141.48311 c 49.6269,-29.54203 127.3757,-14.77101 153.84338,-11.48856 26.46768,3.28244 135.64685,11.48856 152.18916,8.20611 16.54229,-3.28245 67.82342,-8.20611 86.01995,-8.20611 18.19653,0 89.32842,8.20611 100.90803,4.92366 11.5796,-3.28244 86.01995,1.64123 99.25379,6.5649 -3.30846,27.9008 -9.92538,65.64895 -11.57961,78.77874 -24.81345,-3.28245 -67.82342,1.64122 -92.63687,6.56489 -24.81345,4.92367 -84.36573,-11.48857 -112.48764,-11.48857 -28.12191,0 -158.80607,11.48857 -193.5449,11.48857 -34.73883,0 -142.26378,-14.77102 -170.38569,-14.77102 -6.61691,-29.54202 -11.5796,-70.57261 -11.5796,-70.57261 z"
         style="fill:url(#linearGradient4152);fill-opacity:1;fill-rule:evenodd;stroke:none;stroke-width:1px;stroke-linecap:butt;stroke-linejoin:miter;stroke-opacity:1;filter:url(#filter4348)" />
    </g>
    <flowRoot
       xml:space="preserve"
       id="flowRoot3392"
       style="font-style:normal;font-variant:normal;font-weight:normal;font-stretch:normal;font-size:21.42146683px;line-height:125%;font-family:Lavi;-inkscape-font-specification:'Lavi, Normal';text-align:start;letter-spacing:0px;word-spacing:0px;writing-mode:lr-tb;text-anchor:start;fill:#000000;fill-opacity:1;stroke:none;stroke-width:1px;stroke-linecap:butt;stroke-linejoin:miter;stroke-opacity:1"
       transform="matrix(2.2321461,0,0,1.976988,-364.24736,-219.72983)"><flowRegion
         id="flowRegion3394"><rect
           id="rect3396"
           width="425.49997"
           height="54.624996"
           x="252.99998"
           y="196.75012"
           style="font-style:normal;font-variant:normal;font-weight:normal;font-stretch:normal;font-size:21.42146683px;line-height:125%;font-family:Lavi;-inkscape-font-specification:'Lavi, Normal';text-align:start;writing-mode:lr-tb;text-anchor:start" /></flowRegion><flowPara
         id="flowPara3400">Dans l'arène ultra-sécurisée de Komona...</flowPara></flowRoot>  </g>
</svg>
